<?xml version="1.0" encoding="utf-8"?>
<!-- Generator: Adobe Illustrator 26.2.1, SVG Export Plug-In . SVG Version: 6.00 Build 0)  -->
<svg version="1.1" id="Layer_1" xmlns="http://www.w3.org/2000/svg" xmlns:xlink="http://www.w3.org/1999/xlink" x="0px" y="0px"
	 viewBox="0 0 78.2 80" style="enable-background:new 0 0 78.2 80;" xml:space="preserve">
<style type="text/css">
	.st0{clip-path:url(#SVGID_00000162316793648845198300000008785414333871589815_);}
	.st1{fill:#9FA4AE;}
</style>
<g>
	<defs>
		<rect id="SVGID_1_" x="0" width="78.2" height="80"/>
	</defs>
	<clipPath id="SVGID_00000160163321731733664710000005083753391899411594_">
		<use xlink:href="#SVGID_1_"  style="overflow:visible;"/>
	</clipPath>
	<g style="clip-path:url(#SVGID_00000160163321731733664710000005083753391899411594_);">
		<path class="st1" d="M78.1,0C72.8,0,70,3.3,67.6,6.3c-2.4,2.9-4.6,5.6-9,5.6s-6.6-2.7-9-5.6C47.2,3.3,44.4,0,39.1,0
			C33.7,0,31,3.3,28.6,6.3c-2.4,2.9-4.6,5.6-9,5.6s-6.6-2.7-9-5.6C8.2,3.3,5.4,0,0.1,0c-0.6,0-1,0.4-1,1s0.4,1,1,1
			c4.4,0,6.6,2.7,9,5.6c2.4,3,5.2,6.3,10.5,6.3c5.3,0,8.1-3.3,10.5-6.3c2.4-2.9,4.6-5.6,9-5.6c4.4,0,6.6,2.7,9,5.6
			c2.4,3,5.2,6.3,10.5,6.3c5.3,0,8.1-3.3,10.5-6.3c2.4-2.9,4.6-5.6,9-5.6c0.6,0,1-0.4,1-1S78.7,0,78.1,0z"/>
		<path class="st1" d="M78.1,22c-5.3,0-8.1,3.3-10.5,6.3c-2.4,2.9-4.6,5.6-9,5.6s-6.6-2.7-9-5.6c-2.4-3-5.2-6.3-10.5-6.3
			c-5.3,0-8.1,3.3-10.5,6.3c-2.4,2.9-4.6,5.6-9,5.6s-6.6-2.7-9-5.6C8.2,25.4,5.4,22,0.1,22c-0.6,0-1,0.4-1,1s0.4,1,1,1
			c4.4,0,6.6,2.7,9,5.6c2.4,3,5.2,6.3,10.5,6.3c5.3,0,8.1-3.3,10.5-6.3c2.4-2.9,4.6-5.6,9-5.6c4.4,0,6.6,2.7,9,5.6
			c2.4,3,5.2,6.3,10.5,6.3c5.3,0,8.1-3.3,10.5-6.3c2.4-2.9,4.6-5.6,9-5.6c0.6,0,1-0.4,1-1S78.7,22,78.1,22z"/>
		<path class="st1" d="M78.1,11c-5.3,0-8.1,3.3-10.5,6.3c-2.4,2.9-4.6,5.6-9,5.6c-4.4,0-6.6-2.7-9-5.6c-2.4-3-5.2-6.3-10.5-6.3
			c-5.3,0-8.1,3.3-10.5,6.3c-2.4,2.9-4.6,5.6-9,5.6s-6.6-2.7-9-5.6C8.2,14.4,5.4,11,0.1,11c-0.6,0-1,0.4-1,1s0.4,1,1,1
			c4.4,0,6.6,2.7,9,5.6c2.4,3,5.2,6.3,10.5,6.3c5.3,0,8.1-3.3,10.5-6.3c2.4-2.9,4.6-5.6,9-5.6c4.4,0,6.6,2.7,9,5.6
			c2.4,3,5.2,6.3,10.5,6.3s8.1-3.3,10.5-6.3c2.4-2.9,4.6-5.6,9-5.6c0.6,0,1-0.4,1-1S78.7,11,78.1,11z"/>
		<path class="st1" d="M78.1,33.1c-5.3,0-8.1,3.3-10.5,6.3c-2.4,2.9-4.6,5.6-9,5.6c-4.4,0-6.6-2.7-9-5.6c-2.4-3-5.2-6.3-10.5-6.3
			c-5.3,0-8.1,3.3-10.5,6.3c-2.4,2.9-4.6,5.6-9,5.6s-6.6-2.7-9-5.6c-2.4-3-5.2-6.3-10.5-6.3c-0.6,0-1,0.4-1,1s0.4,1,1,1
			c4.4,0,6.6,2.7,9,5.6c2.4,3,5.2,6.3,10.5,6.3c5.3,0,8.1-3.3,10.5-6.3c2.4-2.9,4.6-5.6,9-5.6c4.4,0,6.6,2.7,9,5.6
			c2.4,3,5.2,6.3,10.5,6.3s8.1-3.3,10.5-6.3c2.4-2.9,4.6-5.6,9-5.6c0.6,0,1-0.4,1-1S78.7,33.1,78.1,33.1z"/>
		<path class="st1" d="M78.1,55.1c-5.3,0-8.1,3.3-10.5,6.3c-2.4,2.9-4.6,5.6-9,5.6c-4.4,0-6.6-2.7-9-5.6c-2.4-3-5.2-6.3-10.5-6.3
			c-5.3,0-8.1,3.3-10.5,6.3c-2.4,2.9-4.6,5.6-9,5.6s-6.6-2.7-9-5.6c-2.4-3-5.2-6.3-10.5-6.3c-0.6,0-1,0.4-1,1s0.4,1,1,1
			c4.4,0,6.6,2.7,9,5.6c2.4,3,5.2,6.3,10.5,6.3c5.3,0,8.1-3.3,10.5-6.3c2.4-2.9,4.6-5.6,9-5.6c4.4,0,6.6,2.7,9,5.6
			c2.4,3,5.2,6.3,10.5,6.3s8.1-3.3,10.5-6.3c2.4-2.9,4.6-5.6,9-5.6c0.6,0,1-0.4,1-1S78.7,55.1,78.1,55.1z"/>
		<path class="st1" d="M78.1,44.1c-5.3,0-8.1,3.3-10.5,6.3c-2.4,2.9-4.6,5.6-9,5.6s-6.6-2.7-9-5.6c-2.4-3-5.2-6.3-10.5-6.3
			c-5.3,0-8.1,3.3-10.5,6.3c-2.4,2.9-4.6,5.6-9,5.6s-6.6-2.7-9-5.6c-2.4-3-5.2-6.3-10.5-6.3c-0.6,0-1,0.4-1,1s0.4,1,1,1
			c4.4,0,6.6,2.7,9,5.6c2.4,3,5.2,6.3,10.5,6.3c5.3,0,8.1-3.3,10.5-6.3c2.4-2.9,4.6-5.6,9-5.6c4.4,0,6.6,2.7,9,5.6
			c2.4,3,5.2,6.3,10.5,6.3c5.3,0,8.1-3.3,10.5-6.3c2.4-2.9,4.6-5.6,9-5.6c0.6,0,1-0.4,1-1S78.7,44.1,78.1,44.1z"/>
		<path class="st1" d="M78.1,66.1c-5.3,0-8.1,3.3-10.5,6.3c-2.4,2.9-4.6,5.6-9,5.6s-6.6-2.7-9-5.6c-2.4-3-5.2-6.3-10.5-6.3
			c-5.3,0-8.1,3.3-10.5,6.3c-2.4,2.9-4.6,5.6-9,5.6s-6.6-2.7-9-5.6c-2.4-3-5.2-6.3-10.5-6.3c-0.6,0-1,0.4-1,1s0.4,1,1,1
			c4.4,0,6.6,2.7,9,5.6c2.4,3,5.2,6.3,10.5,6.3c5.3,0,8.1-3.3,10.5-6.3c2.4-2.9,4.6-5.6,9-5.6c4.4,0,6.6,2.7,9,5.6
			c2.4,3,5.2,6.3,10.5,6.3c5.3,0,8.1-3.3,10.5-6.3c2.4-2.9,4.6-5.6,9-5.6c0.6,0,1-0.4,1-1S78.7,66.1,78.1,66.1z"/>
	</g>
</g>
</svg>
